<?xml version="1.0" standalone="no"?>
<!DOCTYPE svg PUBLIC "-//W3C//DTD SVG 20010904//EN"
 "http://www.w3.org/TR/2001/REC-SVG-20010904/DTD/svg10.dtd">
<svg version="1.0" xmlns="http://www.w3.org/2000/svg"
 width="600.000000pt" height="210.000000pt" viewBox="0 0 600.000000 210.000000"
 preserveAspectRatio="xMidYMid meet">

<g transform="translate(0.000000,210.000000) scale(0.100000,-0.100000)"
fill="#000000" stroke="none">
<path d="M2380 1446 l0 -56 183 0 c100 0 197 -4 216 -10 55 -15 60 -31 61
-171 0 -122 -1 -126 -26 -150 -25 -24 -30 -24 -230 -27 l-204 -3 0 -55 0 -55
233 3 c221 3 234 4 268 26 64 39 74 74 74 262 0 188 -10 223 -74 262 -34 22
-47 23 -268 26 l-233 3 0 -55z"/>
<path d="M3168 1228 c-65 -150 -120 -281 -124 -291 -6 -16 -1 -18 56 -15 l63
3 93 215 92 214 16 -34 c9 -19 52 -116 94 -215 l78 -180 62 -3 c34 -2 62 1 61
5 0 4 -55 134 -123 288 l-122 280 -65 3 -64 2 -117 -272z"/>
<path d="M3660 1445 l0 -55 115 0 115 0 0 -235 0 -235 60 0 60 0 0 235 0 235
115 0 115 0 0 55 0 55 -290 0 -290 0 0 -55z"/>
<path d="M4350 1210 l0 -290 55 0 55 0 0 290 0 290 -55 0 -55 0 0 -290z"/>
<path d="M4590 1277 c0 -211 1 -225 23 -267 39 -77 63 -85 267 -85 164 0 177
1 211 23 67 41 74 68 77 325 l3 227 -60 0 -61 0 0 -208 0 -209 -26 -24 c-24
-22 -33 -24 -132 -24 -194 0 -192 -2 -192 270 l0 195 -55 0 -55 0 0 -223z"/>
<path d="M5280 1210 l0 -290 55 0 55 0 2 163 3 162 83 -162 82 -163 64 0 64 0
84 160 83 161 3 -161 2 -160 55 0 55 0 0 290 0 290 -58 0 -57 0 -113 -227
-114 -227 -116 227 -116 227 -58 0 -58 0 0 -290z"/>
</g>
</svg>
