<svg width="108" height="84" viewBox="0 0 108 84" fill="none" xmlns="http://www.w3.org/2000/svg">
<g clip-path="url(#clip0_157_675)">
<path d="M105.026 13.9429C102.966 13.9429 100.907 15.7714 100.449 17.9429C99.9916 20.2286 101.365 21.9429 103.424 21.9429C105.483 21.9429 107.542 20.1143 108 17.9429C108.458 15.7714 107.085 13.9429 105.026 13.9429Z" fill="#E0DF00"/>
<path d="M101.936 38.0571C101.936 39.6571 101.708 44.8 97.4746 45.7143C96.1017 46.0571 94.8433 45.7143 93.8136 45.0286C92.784 44.2286 92.2119 42.9714 92.2119 41.3714L91.6399 0L85.9195 1.71429L86.3772 32.6857C86.3772 33.2571 86.2628 34.2857 86.1484 36.1143C85.6907 41.8286 79.7416 46.0571 74.9365 46.0571C73.106 46.0571 71.5043 45.3714 70.4746 44C69.1018 42.2857 68.6441 39.6571 69.2162 36.9143C70.3602 31.3143 75.3941 26.6286 80.1992 26.6286C80.8856 26.6286 81.5721 26.7429 82.1441 26.9714L83.517 21.4857C82.4873 21.1429 81.3433 21.0286 80.1992 21.0286C72.6484 21.0286 65.4407 27.5429 63.7246 35.7714C63.4958 36.9143 63.3814 37.9429 63.3814 39.0857C62.695 44.8 54.9153 46.6286 52.1695 46.4C47.2501 45.9429 43.1314 43.6571 42.5594 40.1143C40.5001 28.2286 56.0594 22.7429 58.0043 27.6571C59.1484 30.6286 52.7416 35.4286 45.8772 34.8571C45.8772 34.8571 46.678 39.8857 47.1357 39.8857C56.9746 39.7714 63.9534 33.9429 63.6102 28.1143C63.4958 25.1429 61.4365 21.7143 55.4873 21.1429C46.3348 20.3429 37.5255 26.9714 36.9534 37.6C36.7246 40.4571 36.7246 50.2857 50.9111 51.7714C56.7458 52.3429 61.5509 50.1714 64.8687 47.4286C65.0975 47.2 65.3263 46.9714 65.5551 46.8571C65.784 47.2 66.0128 47.4286 66.1272 47.6571C68.3009 50.2857 71.3899 51.7714 75.0509 51.7714C79.6272 51.7714 84.2034 49.3714 87.4068 45.4857C88.0933 47.0857 89.0085 48.3429 90.267 49.3714C91.9831 50.7429 94.0424 51.4286 96.3306 51.4286C97.1314 51.4286 97.9323 51.3143 98.6187 51.2C104.11 49.9429 107.657 44.8 107.542 37.9429V24.2286L101.708 25.1429L101.936 38.0571Z" fill="#E0DF00"/>
<path d="M32.9491 31.3143C32.4915 37.3714 28.7161 42.5143 22.5381 45.7143C22.1949 45.9429 21.8517 46.0571 21.5085 46.1714C16.4746 44.6857 10.7542 43.4286 4.69067 42.9714C10.411 43.0857 15.6737 42.0571 19.678 40.1143C22.6525 38.6286 26.3136 35.6571 26.7712 30.8571C27.2288 24.9143 22.3093 19.6571 13.6144 16.9143L15.5593 10.9714C27 14.5143 33.75 22.4 32.9491 31.3143Z" fill="#E0DF00"/>
<path d="M57.661 58.1714H62.4661V59.2H58.9195V61.3714H61.8941V62.2857H58.9195V65.1429H57.5466V58.1714H57.661Z" fill="#E0DF00"/>
<path d="M63.4958 61.6C63.4958 59.3143 65.0975 57.9429 67.2713 57.9429C69.3306 57.9429 71.0467 59.3143 71.0467 61.6C71.0467 63.8857 69.445 65.2572 67.2713 65.2572C65.212 65.2572 63.4958 63.8857 63.4958 61.6ZM69.6738 61.6C69.6738 60 68.6442 59.0857 67.2713 59.0857C65.8984 59.0857 64.8687 60 64.8687 61.6C64.8687 63.2 65.8984 64.2286 67.2713 64.2286C68.6442 64.2286 69.6738 63.2 69.6738 61.6Z" fill="#E0DF00"/>
<path d="M72.6484 58.1714H75.8518C77.6823 58.1714 78.712 58.9714 78.712 60.2286C78.712 61.1429 78.2544 61.7143 77.4535 61.9429C78.3688 62.0572 78.712 62.6286 78.712 63.5429V65.1429H77.3391V63.4286C77.3391 62.7429 76.9959 62.2857 76.0806 62.2857H74.0213V65.1429H72.6484V58.1714ZM75.8518 61.6C76.8815 61.6 77.3391 61.1429 77.3391 60.3429C77.3391 59.6572 76.8815 59.2 75.7374 59.2H73.9069V61.4857H75.8518V61.6Z" fill="#E0DF00"/>
<path d="M85.9195 62.4L83.0593 58.1714H84.661L86.6059 61.3714L88.5509 58.1714H90.0381L87.178 62.4V65.1429H85.9195V62.4Z" fill="#E0DF00"/>
<path d="M90.4958 61.6C90.4958 59.3143 92.0975 57.9429 94.2713 57.9429C96.3306 57.9429 98.0467 59.3143 98.0467 61.6C98.0467 63.8857 96.445 65.2572 94.2713 65.2572C92.0975 65.2572 90.4958 63.8857 90.4958 61.6ZM96.5594 61.6C96.5594 60 95.5298 59.0857 94.1569 59.0857C92.784 59.0857 91.7543 60 91.7543 61.6C91.7543 63.2 92.784 64.2286 94.1569 64.2286C95.5298 64.2286 96.5594 63.2 96.5594 61.6Z" fill="#E0DF00"/>
<path d="M99.5339 62.5143V58.0572H100.792V62.4C100.792 63.4286 101.593 64.1143 102.737 64.1143C103.881 64.1143 104.682 63.5429 104.682 62.4V58.0572H105.826V62.5143C105.826 64.2286 104.568 65.2572 102.623 65.2572C100.792 65.2572 99.5339 64.2286 99.5339 62.5143Z" fill="#E0DF00"/>
<path d="M60.6356 82.8571L54.4576 84.1143C50.6822 64.2286 32.9492 52.4571 1.94492 49.1429C1.14407 49.0286 0.457627 49.0286 0 48.9143L0.915254 42.7429C1.25847 42.7429 1.60169 42.7429 1.94492 42.7429C2.05932 42.7429 2.17373 42.7429 2.28814 42.7429C3.08898 42.8571 3.88983 42.8571 4.69068 42.8571C10.7542 43.3143 16.4746 44.5714 21.5085 46.0571H21.3941C25.0551 47.0857 28.8305 48.3429 32.7203 50.0571C48.3941 57.1429 57.7754 68.1143 60.6356 82.8571Z" fill="#E0DF00"/>
</g>
<defs>
<clipPath id="clip0_157_675">
<rect width="108" height="84" fill="white"/>
</clipPath>
</defs>
</svg>
